<mxfile host="app.diagrams.net" modified="2024-02-29T01:20:52.041Z" agent="Mozilla/5.0 (Windows NT 10.0; Win64; x64) AppleWebKit/537.36 (KHTML, like Gecko) Chrome/122.0.0.0 Safari/537.36" version="23.1.8" etag="fFo5AuVloiXi-kFwVg99" type="github">
  <diagram name="PÃ¡gina-1" id="NE23m1NC3pBrWkI8DYe7">
    <mxGraphModel>
      <root>
        <mxCell id="0" />
        <mxCell id="1" parent="0" />
      </root>
    </mxGraphModel>
  </diagram>
</mxfile>
